<svg width="32" height="32" viewBox="0 0 32 32" fill="none" xmlns="http://www.w3.org/2000/svg">
<g clip-path="url(#clip0_1_118)">
<path d="M0 16C0 7.16344 7.16344 0 16 0C24.8366 0 32 7.16344 32 16C32 24.8366 24.8366 32 16 32C7.16344 32 0 24.8366 0 16Z" fill="#FDEFEE"/>
<circle opacity="0.15" cx="29" cy="28" r="11" fill="#ED5F59"/>
<path d="M16 27.6667C13.9389 27.6667 12.2569 27.341 10.9542 26.6896C9.65139 26.0382 9 25.1972 9 24.1667C9 23.4861 9.28194 22.8931 9.84583 22.3875C10.4097 21.8819 11.1875 21.4833 12.1792 21.1917L12.85 23.4083C12.5194 23.5056 12.2181 23.6271 11.9458 23.7729C11.6736 23.9188 11.4889 24.05 11.3917 24.1667C11.6444 24.4778 12.2278 24.75 13.1417 24.9833C14.0556 25.2167 15.0083 25.3333 16 25.3333C16.9917 25.3333 17.9493 25.2167 18.8729 24.9833C19.7965 24.75 20.3847 24.4778 20.6375 24.1667C20.5403 24.05 20.3556 23.9188 20.0833 23.7729C19.8111 23.6271 19.5097 23.5056 19.1792 23.4083L19.85 21.1917C20.8417 21.4833 21.6146 21.8819 22.1687 22.3875C22.7229 22.8931 23 23.4861 23 24.1667C23 25.1972 22.3486 26.0382 21.0458 26.6896C19.7431 27.341 18.0611 27.6667 16 27.6667ZM16 24.1667C15.7861 24.1667 15.5917 24.1035 15.4167 23.9771C15.2417 23.8507 15.1153 23.6806 15.0375 23.4667C14.5903 22.0861 14.0264 20.9292 13.3458 19.9958C12.6653 19.0625 12.0042 18.1681 11.3625 17.3125C10.7403 16.4569 10.2007 15.5722 9.74375 14.6583C9.28681 13.7444 9.05833 12.6167 9.05833 11.275C9.05833 9.33056 9.72917 7.6875 11.0708 6.34584C12.4125 5.00417 14.0556 4.33334 16 4.33334C17.9444 4.33334 19.5875 5.00417 20.9292 6.34584C22.2708 7.6875 22.9417 9.33056 22.9417 11.275C22.9417 12.6167 22.7181 13.7444 22.2708 14.6583C21.8236 15.5722 21.2792 16.4569 20.6375 17.3125C20.0153 18.1681 19.359 19.0625 18.6687 19.9958C17.9785 20.9292 17.4097 22.0861 16.9625 23.4667C16.8847 23.6806 16.7583 23.8507 16.5833 23.9771C16.4083 24.1035 16.2139 24.1667 16 24.1667ZM16 13.7542C16.6806 13.7542 17.2639 13.5111 17.75 13.025C18.2361 12.5389 18.4792 11.9556 18.4792 11.275C18.4792 10.5944 18.2361 10.0111 17.75 9.525C17.2639 9.03889 16.6806 8.79584 16 8.79584C15.3194 8.79584 14.7361 9.03889 14.25 9.525C13.7639 10.0111 13.5208 10.5944 13.5208 11.275C13.5208 11.9556 13.7639 12.5389 14.25 13.025C14.7361 13.5111 15.3194 13.7542 16 13.7542Z" fill="#ED5F59"/>
</g>
<defs>
<clipPath id="clip0_1_118">
<path d="M0 16C0 7.16344 7.16344 0 16 0C24.8366 0 32 7.16344 32 16C32 24.8366 24.8366 32 16 32C7.16344 32 0 24.8366 0 16Z" fill="white"/>
</clipPath>
</defs>
</svg>
