<svg width="32" height="32" viewBox="0 0 32 32" fill="none" xmlns="http://www.w3.org/2000/svg">
<g clip-path="url(#clip0_1_139)">
<path d="M0 16C0 7.16344 7.16344 0 16 0C24.8366 0 32 7.16344 32 16C32 24.8366 24.8366 32 16 32C7.16344 32 0 24.8366 0 16Z" fill="#FFF9E8"/>
<path d="M12 23.3333C10.8889 23.3333 9.94444 22.9445 9.16667 22.1667C8.38889 21.3889 8 20.4445 8 19.3333V15.3333H12V-3.33333H32V19.3333C32 20.4445 31.6111 21.3889 30.8333 22.1667C30.0556 22.9445 29.1111 23.3333 28 23.3333H12ZM28 20.6667C28.3778 20.6667 28.6944 20.5389 28.95 20.2833C29.2056 20.0278 29.3333 19.7111 29.3333 19.3333V-0.666662H14.6667V15.3333H26.6667V19.3333C26.6667 19.7111 26.7944 20.0278 27.05 20.2833C27.3056 20.5389 27.6222 20.6667 28 20.6667ZM16 6.00001V3.33334H28V6.00001H16ZM16 10V7.33334H28V10H16Z" fill="#E5B217"/>
<path opacity="0.1" d="M-9 21.0938L22.9707 55.0918L31.7803 46.249L40.9482 56L52 44.9062L20.0293 10.9082L11.2207 19.75L2.05176 10L-9 21.0938Z" fill="#E5B217"/>
</g>
<defs>
<clipPath id="clip0_1_139">
<path d="M0 16C0 7.16344 7.16344 0 16 0C24.8366 0 32 7.16344 32 16C32 24.8366 24.8366 32 16 32C7.16344 32 0 24.8366 0 16Z" fill="white"/>
</clipPath>
</defs>
</svg>
