<svg width="32" height="32" viewBox="0 0 32 32" fill="none" xmlns="http://www.w3.org/2000/svg">
<g clip-path="url(#clip0_1_108)">
<path d="M0 16C0 7.16344 7.16344 0 16 0C24.8366 0 32 7.16344 32 16C32 24.8366 24.8366 32 16 32C7.16344 32 0 24.8366 0 16Z" fill="#E8F2F0"/>
<path d="M27.6667 20L19.5 8.33334L11.3333 20H13.5033L9 27H17.1667V31.6667H21.8333V27H30L25.4967 20H27.6667Z" fill="#18786C"/>
<path d="M32.4967 20H34.6667L26.5 8.33334L23.7117 12.3117L29.9067 21.1667H27.6317L31.3883 27H37L32.4967 20Z" fill="#18786C"/>
<path d="M28.8333 28.1667H24.1667V31.6667H28.8333V28.1667Z" fill="#18786C"/>
<path opacity="0.15" d="M38.4297 17.4048L10.9512 45.2563L3.3799 38.0122L-4.49998 45.9995L-13.999 36.9116L13.4795 9.06006L21.0498 16.3032L28.9307 8.31689L38.4297 17.4048Z" fill="#18786C"/>
</g>
<defs>
<clipPath id="clip0_1_108">
<path d="M0 16C0 7.16344 7.16344 0 16 0C24.8366 0 32 7.16344 32 16C32 24.8366 24.8366 32 16 32C7.16344 32 0 24.8366 0 16Z" fill="white"/>
</clipPath>
</defs>
</svg>
