<svg width="32" height="32" viewBox="0 0 32 32" fill="none" xmlns="http://www.w3.org/2000/svg">
<g clip-path="url(#clip0_1_131)">
<path d="M0 16C0 7.16344 7.16344 0 16 0C24.8366 0 32 7.16344 32 16C32 24.8366 24.8366 32 16 32C7.16344 32 0 24.8366 0 16Z" fill="#E9EBF3"/>
<path d="M15.3333 8.66666H19.3333V3.33333H38C39.4667 3.33333 40.6667 4.53333 40.6667 5.99999V20.6667H38C38 22.88 36.2133 24.6667 34 24.6667C31.7867 24.6667 30 22.88 30 20.6667H22C22 22.88 20.2133 24.6667 18 24.6667C15.7867 24.6667 14 22.88 14 20.6667H11.3333V14L15.3333 8.66666ZM34 22.6667C35.1067 22.6667 36 21.7733 36 20.6667C36 19.56 35.1067 18.6667 34 18.6667C32.8933 18.6667 32 19.56 32 20.6667C32 21.7733 32.8933 22.6667 34 22.6667ZM16 10.6667L13.3867 14H19.3333V10.6667H16ZM18 22.6667C19.1067 22.6667 20 21.7733 20 20.6667C20 19.56 19.1067 18.6667 18 18.6667C16.8933 18.6667 16 19.56 16 20.6667C16 21.7733 16.8933 22.6667 18 22.6667Z" fill="#465DA2"/>
</g>
<defs>
<clipPath id="clip0_1_131">
<path d="M0 16C0 7.16344 7.16344 0 16 0C24.8366 0 32 7.16344 32 16C32 24.8366 24.8366 32 16 32C7.16344 32 0 24.8366 0 16Z" fill="white"/>
</clipPath>
</defs>
</svg>
